<svg xmlns="http://www.w3.org/2000/svg" xmlns:svg="http://www.w3.org/2000/svg" xmlns:xlink="http://www.w3.org/1999/xlink" id="svg857" width="256" height="256" version="1.1" viewBox="0 0 256 256"><metadata id="metadata863"/><defs id="defs861"><linearGradient id="linearGradient1452"><stop id="stop1448" offset="0" style="stop-color:#4a69fe;stop-opacity:1"/><stop id="stop1450" offset="1" style="stop-color:#4d2bd9;stop-opacity:1"/></linearGradient><linearGradient id="linearGradient1454" x1="37.515" x2="222.687" y1="43.175" y2="212.735" gradientTransform="translate(-1.0277863,-1.0277863)" gradientUnits="userSpaceOnUse" xlink:href="#linearGradient1452"/></defs><title id="title849">形状结合</title><circle id="path1432" cx="128" cy="128" r="128" style="opacity:.98;fill:url(#linearGradient1454);fill-opacity:1;fillRule:evenodd;strokeWidth:9.005"/><desc id="desc851">Created with Sketch.</desc><path id="形状结合" d="m 205.42149,142.0199 v 12.5037 c 0,34.73803 -51.03266,54.73181 -66.67529,60.03411 v 0 L 133.057,216.5 v -21.61062 l 2.77942,-1.03631 c 24.33714,-9.04694 48.89285,-24.71715 48.89285,-39.32947 v 0 -12.5037 z M 128.13331,39.499999 148.98826,45.851406 V 67.90021 l -20.85495,-6.372996 -1.36421,0.417405 v 49.609401 h 22.21916 v 20.43996 H 126.7691 v 84.20351 l -5.79362,-2.13179 c -2.68955,-0.98754 -7.02263,-2.66995 -12.38312,-5.07121 v 0 l -2.51791,-1.13547 V 46.223227 Z m -28.605284,8.79945 v 21.948852 l -28.257289,8.663916 v 32.641413 h 28.257289 v 94.53863 l -6.25834,-3.1793 C 73.794318,193.01283 50.578513,176.3183 50.578513,153.00848 v 0 -10.98842 h 20.692224 v 10.98842 c 0,4.82333 2.541391,9.89054 7.562645,15.10889 v 0 -36.12378 H 50.578513 V 63.222813 Z m 55.741674,-0.522554 50.15179,15.329574 v 68.887511 h -29.44581 v 29.82835 c 0,0 -6.58301,8.52397 -20.68737,15.66142 0,-3.94485 -0.009,-64.5948 -0.0144,-101.544356 z m 20.70598,28.366628 v 35.410497 h 8.75359 V 78.812664 Z" style="fill:#fff;fillRule:evenodd;stroke:none;strokeWidth:4.99763"/></svg>