<svg xmlns="http://www.w3.org/2000/svg" xmlns:svg="http://www.w3.org/2000/svg" id="svg6883" width="1000" height="1000" version="1.1" viewBox="0 0 264.583 264.583"><defs id="defs6877"><clipPath id="clipPath6239" clipPathUnits="userSpaceOnUse"><path id="path6237" d="m 356.5178,984 h -4.135 -11.3558 c -0.3301,0 -0.5977,-0.267 -0.5977,-0.5964 v -37.5693 c 0,-0.3296 0.2676,-0.5966 0.5977,-0.5966 h 10.7581 c 0.3301,0 0.5977,0.267 0.5977,0.5966 v 9.5413 h 4.135 c 7.9222,0 14.3442,6.4079 14.3442,14.3125 0,7.904 -6.422,14.3119 -14.3442,14.3119" clipRule="evenodd"/></clipPath><clipPath id="clipPath6245" clipPathUnits="userSpaceOnUse"><path id="path6243" d="M 0,0 H 1225 V 4536 H 0 Z"/></clipPath><clipPath id="clipPath6177" clipPathUnits="userSpaceOnUse"><path id="path6175" d="M 0,0 H 1225 V 4536 H 0 Z"/></clipPath><clipPath id="clipPath6183" clipPathUnits="userSpaceOnUse"><path id="path6181" d="m 326,941 h 20 v 39 h -20 z"/></clipPath><clipPath id="clipPath6187" clipPathUnits="userSpaceOnUse"><path id="path6185" d="m 326,979.8311 h 19.1639 v -38.791 H 326 Z" clipRule="evenodd"/></clipPath><clipPath id="clipPath6191" clipPathUnits="userSpaceOnUse"><path id="path6189" d="m 325,940 h 21 v 40 h -21 z"/></clipPath><clipPath id="clipPath6195" clipPathUnits="userSpaceOnUse"><path id="path6193" d="m 326,941 h 20 v 39 h -20 z"/></clipPath><clipPath id="clipPath6199" clipPathUnits="userSpaceOnUse"><path id="path6197" d="m 345.1639,970.5173 h -1.3051 v 9.3138 H 326.599 c -0.3308,0 -0.5992,-0.2675 -0.5992,-0.5971 v -13.1291 c 0,-0.3296 0.2684,-0.5968 0.5992,-0.5968 h 6.5876 v -23.8714 c 0,-0.3296 0.2681,-0.5966 0.5989,-0.5966 h 10.7795 c 0.3308,0 0.5989,0.267 0.5989,0.5966 z" clipRule="evenodd"/></clipPath><clipPath id="clipPath6203" clipPathUnits="userSpaceOnUse"><path id="path6201" d="m 325,941 h 21 v 39 h -21 z"/></clipPath><clipPath id="clipPath6143" clipPathUnits="userSpaceOnUse"><path id="path6141" d="m 345.8705,999 c 19.8107,0 35.8705,-16.0598 35.8705,-35.8705 0,-19.8107 -16.0598,-35.8705 -35.8705,-35.8705 C 326.0598,927.259 310,943.3188 310,963.1295 310,982.9402 326.0598,999 345.8705,999 Z" clipRule="evenodd"/></clipPath><linearGradient id="linearGradient6157" x1="0" x2="0" y1="0" y2="1024" gradientTransform="matrix(1,0,0,-1,310,999)" gradientUnits="userSpaceOnUse"><stop style="stop-opacity:1;stop-color:#2bafff" id="stop6153" offset="0"/><stop style="stop-opacity:1;stop-color:#2761e7" id="stop6155" offset="1"/></linearGradient><linearGradient id="linearGradient6167" x1="71.741" x2="1.074" y1="0" y2="71.741" gradientTransform="matrix(1,0,0,-1,310,999)" gradientUnits="userSpaceOnUse" spreadMethod="pad"><stop style="stop-opacity:1;stop-color:#2bafff" id="stop6163" offset="0"/><stop style="stop-opacity:1;stop-color:#2761e7" id="stop6165" offset="1"/></linearGradient></defs><metadata id="metadata6880"/><g id="layer1" transform="translate(43.648288,39.112665)"><g id="g6137" transform="matrix(3.6880352,0,0,-3.6880352,-1186.9392,3645.2345)"><g id="g6139" clip-path="url(#clipPath6143)"><g id="g6145"><g id="g6151"><path style="fill:url(#linearGradient6157);stroke:none" id="path6159" d="M 0,0 H 1225 V 4536 H 0 Z"/></g><g id="g6161"><path style="fill:url(#linearGradient6167);stroke:none" id="path6169" d="M 0,0 H 1225 V 4536 H 0 Z"/></g></g></g></g><g id="g6171" transform="matrix(3.6880352,0,0,-3.6880352,-1186.9392,3645.2345)"><g id="g6173" clip-path="url(#clipPath6177)"><g id="g6231"><g id="g6229" clip-path="url(#clipPath6183)" opacity=".6"><g id="g6227"><g id="g6225" clip-path="url(#clipPath6187)"><g id="g6223" clip-path="url(#clipPath6191)"><g id="g6221"><g id="g6219" clip-path="url(#clipPath6195)"><g id="g6217"><g id="g6215" clip-path="url(#clipPath6199)"><g id="g6213" clip-path="url(#clipPath6203)"><path style="fill:#fff;fill-opacity:1;fillRule:nonzero;stroke:none" id="path6211" d="m 320.9998,936.0401 h 29.16416 v 48.79094 H 320.9998 Z"/></g></g></g></g></g></g></g></g></g></g></g></g><g id="g6233" transform="matrix(3.6880352,0,0,-3.6880352,-1186.9392,3645.2345)"><g id="g6235" clip-path="url(#clipPath6239)"><g id="g6241" clip-path="url(#clipPath6245)"><path style="fill:#fff;fill-opacity:1;fillRule:nonzero;stroke:none" id="path6247" d="m 335.4293,940.2377 h 40.43269 v 48.76232 H 335.4293 Z"/></g></g></g></g></svg>